# xmcd
#
# Track frame offsets: 
#        150
#        21767
#        42302
#        56467
#        67460
#        80567
#        106300
#        121372
#        138227
#        155272
#        166927
#        187155
#        198737
#
# Disc length: 2812 seconds
#
# Revision: 1
# Processed by: cddbd v1.5.2PL0 Copyright (c) Steve Scherf et al.
# Submitted via: ExactAudioCopyFreeDBPlugin 1.0
#
DISCID=ba0afa0d
DTITLE=Townes Van Zandt - Live At The Old Quarter, Houston, Texas [cd2
DTITLE=]
DYEAR=1977
DGENRE=Country
TTITLE0=For The Sake Of The Song
TTITLE1=Chauffeur's Blues
TTITLE2=No Place To Fall
TTITLE3=Loretta
TTITLE4=Kathleen
TTITLE5=Why She's Acting This Way
TTITLE6=Cocaine Blues
TTITLE7=Why Do You Love
TTITLE8=Tower Song
TTITLE9=Waiting 'round To Die
TTITLE10=Tecumseh Valley
TTITLE11=Lungs
TTITLE12=Only Him Or Me
EXTD=
EXTT0=
EXTT1=
EXTT2=
EXTT3=
EXTT4=
EXTT5=
EXTT6=
EXTT7=
EXTT8=
EXTT9=
EXTT10=
EXTT11=
EXTT12=
PLAYORDER=
